<svg id="Layer_1" data-name="Layer 1" xmlns="http://www.w3.org/2000/svg" viewBox="0 0 122.88 115.52"><title>small-screen-arrow</title><path d="M110.15,34a6,6,0,0,1,0,12H83a6,6,0,0,1-6-6V12.33a6,6,0,1,1,12,0V25.54l23.7-23.78a6,6,0,0,1,8.47,8.42L97.38,34ZM34,15.82a6,6,0,0,1,12,0V43a6,6,0,0,1-6,6H12.33a6,6,0,0,1,0-12H25.54L1.76,13.3a6,6,0,0,1,8.42-8.47L34,28.59V15.82ZM12.84,81.5a6,6,0,1,1,0-12H40a6,6,0,0,1,6,6v27.68a6,6,0,0,1-12,0V90L10.31,113.76a6,6,0,1,1-8.46-8.42L25.61,81.5Zm76,18.2a6,6,0,1,1-12,0V72.53a6,6,0,0,1,6-6h27.68a6,6,0,1,1,0,12H97.33l23.79,23.71a6,6,0,0,1-8.42,8.46L88.86,86.93V99.7Z"/></svg>